<?xml version="1.0" standalone="no"?>
<!DOCTYPE svg PUBLIC "-//W3C//DTD SVG 1.1//EN" "http://www.w3.org/Graphics/SVG/1.1/DTD/svg11.dtd" >
<svg xmlns="http://www.w3.org/2000/svg">
<metadata>Generated by IcoMoon</metadata>
<defs>
<font id="icomoon" horiz-adv-x="1024">
<font-face units-per-em="1024" ascent="960" descent="-64" />
<missing-glyph horiz-adv-x="1024" />
<glyph unicode="&#x20;" horiz-adv-x="512" d="" />
<glyph unicode="&#xe900;" glyph-name="state" d="M1018.388 953.818c-5.851 6.195-14.87 7.921-22.506 4.326l-984.319-462.691c-7.913-3.738-12.533-12.289-11.383-21.144s7.794-15.884 16.381-17.346l441.5-75.781 50.47-427.306c1.071-8.901 7.714-16.069 16.341-17.569 1.131-0.205 2.241-0.307 3.351-0.307 7.437 0 14.397 4.286 17.769 11.293l475.943 983.37c3.73 7.698 2.304 16.98-3.547 23.155z" />
<glyph unicode="&#xe901;" glyph-name="back-arrow" horiz-adv-x="1456" d="M475.536-48.658c9.364-9.461 22.353-15.319 36.709-15.319 28.521 0 51.643 23.121 51.643 51.643 0 14.165-5.703 26.998-14.938 36.328l-372.13 372.13h1228.141c0.063 0 0.137 0 0.211 0 28.244 0 51.14 22.896 51.14 51.14 0 0.099 0 0.197-0.001 0.296v-0.015c0.001 0.125 0.002 0.273 0.002 0.422 0 28.431-22.949 51.502-51.334 51.7h-1228.090l372.134 371.294c9.214 9.476 14.895 22.429 14.895 36.709s-5.681 27.233-14.907 36.721l0.012-0.012c-9.339 9.516-22.335 15.413-36.709 15.413s-27.37-5.898-36.701-15.405l-460.272-460.272c-9.491-9.205-15.382-22.077-15.382-36.324s5.89-27.118 15.369-36.311l0.013-0.012z" />
<glyph unicode="&#xe902;" glyph-name="arrow-left" d="M234.965 411.454l477.91-460.337c20.97-20.156 54.946-20.156 75.969 0 20.97 20.155 20.97 52.892 0 73.046l-440.003 423.812 439.95 423.811c20.97 20.155 20.97 52.892 0 73.098-20.97 20.155-54.999 20.155-75.969 0l-477.91-460.337c-20.653-19.946-20.653-53.198 0.053-73.093z" />
<glyph unicode="&#xe903;" glyph-name="arrow-right" d="M789.035 484.546l-477.91 460.337c-20.97 20.156-54.946 20.156-75.969 0-20.97-20.155-20.97-52.892 0-73.046l440.003-423.812-439.95-423.811c-20.97-20.155-20.97-52.892 0-73.098 20.97-20.155 54.999-20.155 75.969 0l477.91 460.337c20.653 19.946 20.653 53.198-0.053 73.093z" />
<glyph unicode="&#xe904;" glyph-name="arrow-up" d="M475.454 725.035l-460.337-477.91c-20.156-20.97-20.156-54.946 0-75.969 20.155-20.97 52.892-20.97 73.046 0l423.812 440.003 423.811-439.95c20.155-20.97 52.892-20.97 73.098 0 20.155 20.97 20.155 54.999 0 75.969l-460.337 477.91c-19.946 20.653-53.198 20.653-73.093-0.053z" />
<glyph unicode="&#xe905;" glyph-name="arrow-down" d="M548.546 170.965l460.337 477.91c20.156 20.97 20.156 54.946 0 75.969-20.155 20.97-52.892 20.97-73.046 0l-423.812-440.003-423.811 439.95c-20.155 20.97-52.892 20.97-73.098 0-20.155-20.97-20.155-54.999 0-75.969l460.337-477.91c19.946-20.653 53.198-20.653 73.093 0.053z" />
<glyph unicode="&#xe906;" glyph-name="hipotec" d="M102.416 572.569l-26.344-15.6c-24.719-13.733-55.889-4.824-69.62 19.894-13.733 24.716-4.826 55.886 19.891 69.619l411.061 242.987c46.39 25.772 102.799 25.772 149.189 0l411.063-242.987c24.715-13.733 33.624-44.903 19.89-69.619-13.733-24.718-44.903-33.627-69.621-19.894l-26.325 15.589v-554.641c0-16.964-13.752-30.716-30.716-30.716h-296.956c-16.967 0-30.72 13.752-30.72 30.716v163.841c0 5.656-4.585 10.241-10.241 10.241h-81.919c-5.652 0-10.238-4.585-10.238-10.241v-163.841c0-16.964-13.752-30.716-30.72-30.716h-296.955c-16.966 0-30.718 13.752-30.718 30.716v554.651zM409.597 448.002h204.795c28.279 0 51.199-22.924 51.199-51.202 0-28.275-22.92-51.199-51.199-51.199h-204.795c-28.275 0-51.199 22.924-51.199 51.199 0 28.279 22.924 51.202 51.199 51.202zM204.815 633.206v-533.366c0-5.656 4.584-10.241 10.239-10.241h133.116c5.656 0 10.241 4.585 10.241 10.241v143.359c0 28.279 22.92 51.202 51.199 51.202h204.795c28.275 0 51.199-22.924 51.199-51.202v-143.359c0-5.656 4.585-10.241 10.241-10.241h133.118c5.652 0 10.238 4.585 10.238 10.241v533.352l-282.34 167.19c-15.463 8.591-34.264 8.591-49.727 0l-282.319-167.177z" />
<glyph unicode="&#xe907;" glyph-name="micro" d="M295.281 960h433.44c89.767 0 162.539-68.775 162.539-153.6v-716.8c0-84.825-72.772-153.6-162.539-153.6h-433.44c-89.769 0-162.54 68.775-162.54 153.6v716.8c0 84.825 72.771 153.6 162.54 153.6zM322.372 857.6h-27.091c-29.922 0-54.179-22.925-54.179-51.2v-716.8c0-28.274 24.257-51.2 54.179-51.2h433.44c29.924 0 54.177 22.926 54.177 51.2v716.8c0 28.275-24.254 51.2-54.177 51.2h-27.090l-20.935-79.125c-3.618-13.676-16.623-23.275-31.535-23.275h-274.317c-14.918 0-27.921 9.599-31.538 23.275l-20.932 79.125z" />
<glyph unicode="&#xe908;" glyph-name="card" d="M153.6 857.599h716.8c84.833 0 153.6-68.769 153.6-153.6v-511.998c0-84.833-68.767-153.6-153.6-153.6h-716.8c-84.831 0-153.6 68.767-153.6 153.6v511.998c0 84.831 68.769 153.6 153.6 153.6zM921.599 652.801v51.199c0 28.275-22.92 51.2-51.199 51.2h-716.8c-28.278 0-51.201-22.924-51.201-51.2v-51.199h819.2zM204.799 294.399h51.202c28.275 0 51.197-22.924 51.197-51.199s-22.922-51.199-51.197-51.199h-51.202c-28.278 0-51.2 22.924-51.2 51.199s22.921 51.199 51.2 51.199zM409.6 294.399h153.6c28.275 0 51.199-22.924 51.199-51.199s-22.924-51.199-51.199-51.199h-153.6c-28.278 0-51.202 22.924-51.202 51.199s22.924 51.199 51.202 51.199zM921.599 499.201h-819.2v-307.2c0-28.275 22.922-51.202 51.201-51.202h716.8c28.278 0 51.199 22.926 51.199 51.202v307.2z" />
<glyph unicode="&#xe909;" glyph-name="search" d="M409.579 960c-225.683 0-409.579-183.895-409.579-409.579 0-225.682 183.896-409.581 409.579-409.581 97.084 0 186.139 34.219 256.442 90.971l282.96-282.96c17.135-17.135 45.028-17.135 62.168 0 17.135 17.135 17.135 45.033 0 62.168l-282.499 282.499c56.673 70.281 90.51 159.891 90.51 256.903 0 225.684-183.899 409.579-409.581 409.579zM409.579 872.233c178.248 0 321.813-143.561 321.813-321.812 0-178.248-143.565-321.813-321.813-321.813-178.25 0-321.812 143.565-321.812 321.813 0 178.251 143.562 321.812 321.812 321.812z" />
<glyph unicode="&#xe90a;" glyph-name="close" d="M977.175 820.271l-92.998 92.998-372.271-372.177-372.177 372.177-92.998-92.998 372.177-372.271-372.177-372.177 92.998-92.998 372.177 372.177 372.271-372.177 92.998 92.998-372.177 372.177 372.177 372.271z" />
<glyph unicode="&#xe90b;" glyph-name="libra" d="M941.012 349.457h-279.632l139.81 233.041 139.822-233.041zM222.805 421.837l139.816-233.046h-279.628l139.812 233.046zM847.191 622.451l154.829 43.006c15.969 4.434 25.31 20.97 20.878 36.935s-20.975 25.313-36.932 20.877l-192.461-53.461c-0.011-0.003-83.849-23.289-251.505-69.859v330.051c0 16.568-13.431 30-29.998 30s-30-13.432-30-30v-346.717l-266.886-74.134c-0.009-0.002-64.389-17.885-193.138-53.647-15.964-4.434-25.308-20.97-20.876-36.935 3.69-13.278 15.746-21.978 28.886-21.978 2.658 0 5.362 0.356 8.046 1.103l120.372 33.436-154.12-256.9c-2.796-4.665-4.276-10.001-4.276-15.434 0-122.852 99.946-222.794 222.794-222.794 122.852 0 222.796 99.942 222.796 222.794 0 5.433-1.479 10.769-4.276 15.434l-172.522 287.563 467.995 129.996-154.123-256.898c-2.793-4.659-4.272-9.995-4.272-15.434 0-122.852 99.942-222.794 222.794-222.794 59.511 0 115.456 23.177 157.542 65.257 42.081 42.081 65.252 98.025 65.252 157.537 0 5.439-1.479 10.775-4.278 15.434l-172.521 287.563z" />
<glyph unicode="&#xe90c;" glyph-name="dot" d="M511.795 960.205c282.682-0.117 511.795-229.302 511.795-512 0-282.77-229.23-512-512-512s-512 229.23-512 512v0c0 282.624 229.376 512 512.205 512z" />
<glyph unicode="&#xe90d;" glyph-name="polygon-up" d="M1024 192.834l-512.001 510.334-511.999-510.334z" />
<glyph unicode="&#xe90e;" glyph-name="polygon-down" d="M0 703.166l512.001-510.334 511.999 510.334z" />
<glyph unicode="&#xe90f;" glyph-name="grid" d="M384 576h255.999v-255.999h-255.999v255.999zM0 960h255.999v-255.999h-255.999v255.999zM384 191.999h255.999v-255.999h-255.999v255.999zM0 576h255.999v-255.999h-255.999v255.999zM0 191.999h255.999v-255.999h-255.999v255.999zM768.001 960h255.999v-255.999h-255.999v255.999zM384 960h255.999v-255.999h-255.999v255.999zM768.001 576h255.999v-255.999h-255.999v255.999zM768.001 191.999h255.999v-255.999h-255.999v255.999z" />
<glyph unicode="&#xe910;" glyph-name="menu" d="M1024 832c0 25.6-17.067 42.667-42.667 42.667h-938.667c-25.6 0-42.667-17.067-42.667-42.667v-85.333c0-25.6 17.067-42.667 42.667-42.667h938.667c25.6 0 42.667 17.067 42.667 42.667v85.333zM1024 490.667c0 25.6-17.067 42.667-42.667 42.667h-938.667c-25.6 0-42.667-17.067-42.667-42.667v-85.333c0-25.6 17.067-42.667 42.667-42.667h938.667c25.6 0 42.667 17.067 42.667 42.667v85.333zM1024 149.333c0 25.6-17.067 42.667-42.667 42.667h-938.667c-25.6 0-42.667-17.067-42.667-42.667v-85.333c0-25.6 17.067-42.667 42.667-42.667h938.667c25.6 0 42.667 17.067 42.667 42.667v85.333z" />
<glyph unicode="&#xe911;" glyph-name="delete" d="M511.908 960c-282.721 0-511.908-229.261-511.908-512.018 0-282.721 229.187-511.982 511.908-511.982 282.868 0 512.092 229.297 512.092 511.982 0 282.757-229.224 512.018-512.092 512.018zM732.051 309.349l-81.546-81.436c0 0-129.002 138.413-138.633 138.413-9.484 0-138.523-138.413-138.523-138.413l-81.583 81.436c0 0 138.56 127.135 138.56 138.45 0 11.497-138.56 138.669-138.56 138.669l81.583 81.619c0 0 130.1-138.486 138.523-138.486 8.495 0 138.633 138.486 138.633 138.486l81.546-81.619c0 0-138.596-129.002-138.596-138.669 0-9.192 138.596-138.45 138.596-138.45z" />
<glyph unicode="&#xe912;" glyph-name="bookmark" d="M819.2 960v-1023.999h-216.33l2.094 40.901c0.044 0.655 0.105 1.308 0.115 1.974 0 50.317-40.742 91.264-90.821 91.264-50.081 0-90.824-40.947-90.824-91.279 0.009-0.645 0.070-1.303 0.115-1.953l2.096-40.906h-220.845v1023.999h614.399z" />
<glyph unicode="&#xe913;" glyph-name="minus" d="M0 472.381h1024v-48.762h-1024v48.762z" />
<glyph unicode="&#xe914;" glyph-name="check-circle" d="M711.158-23.808c-26.051-11.008-56.084 1.188-67.092 27.233s1.183 56.084 27.233 67.092c7.706 3.256 15.309 6.748 22.794 10.47 79.974 39.767 145.152 104.945 184.919 184.914 3.717 7.475 7.204 15.063 10.455 22.753 11.008 26.045 41.047 38.236 67.092 27.228 26.045-11.013 38.236-41.052 27.223-67.098-4.070-9.626-8.433-19.123-13.082-28.477-49.7-99.948-131.062-181.309-231.014-231.009-9.37-4.659-18.883-9.032-28.529-13.107zM412.654 347.064l284.076 293.135c16.302 16.801 42.737 16.801 59.044 0 16.302-16.801 16.302-44.041 0-60.841l-313.598-323.557c-16.304-16.799-42.739-16.799-59.043 0l-114.904 118.518c-16.304 16.804-16.304 44.042 0 60.846 16.305 16.799 42.739 16.799 59.044 0l85.382-88.1zM1024 448c0-28.278-22.922-51.2-51.2-51.2s-51.2 22.922-51.2 51.2c0 226.216-183.383 409.6-409.6 409.6s-409.6-183.384-409.6-409.6c0-226.217 183.384-409.6 409.6-409.6 28.278 0 51.2-22.922 51.2-51.2s-22.922-51.2-51.2-51.2c-282.77 0-512 229.233-512 512 0 282.77 229.23 512 512 512 282.767 0 512-229.23 512-512z" />
<glyph unicode="&#xe915;" glyph-name="info" d="M511.979 960c-282.732 0-511.979-229.246-511.979-511.979s229.246-512.021 511.979-512.021c282.732 0 512.021 229.289 512.021 512.021s-229.289 511.979-512.021 511.979zM618.561 166.503c-26.353-10.403-47.331-18.291-63.066-23.753-15.69-5.461-33.938-8.192-54.7-8.192-31.901 0-56.737 7.802-74.422 23.362s-26.483 35.282-26.483 59.251c0 9.319 0.65 18.855 1.951 28.564 1.344 9.709 3.467 20.632 6.372 32.899l32.985 116.508c2.904 11.183 5.418 21.802 7.411 31.684 1.994 9.969 2.947 19.115 2.947 27.437 0 14.823-3.077 25.226-9.189 31.078-6.198 5.851-17.858 8.712-35.238 8.712-8.496 0-17.251-1.257-26.223-3.901-8.886-2.731-16.601-5.201-22.929-7.629l8.712 35.889c21.586 8.799 42.26 16.34 61.982 22.583 19.721 6.328 38.36 9.449 55.914 9.449 31.684 0 56.131-7.715 73.338-22.973 17.12-15.3 25.746-35.195 25.746-59.641 0-5.071-0.607-14-1.777-26.743-1.171-12.786-3.381-24.445-6.589-35.151l-32.812-116.162c-2.687-9.319-5.071-19.982-7.238-31.901-2.124-11.92-3.164-21.022-3.164-27.133 0-15.431 3.424-25.964 10.359-31.555 6.848-5.591 18.854-8.409 35.845-8.409 8.019 0 16.991 1.43 27.133 4.204 10.056 2.774 17.337 5.245 21.932 7.369l-8.799-35.845zM612.753 637.998c-15.3-14.217-33.722-21.326-55.264-21.326-21.499 0-40.049 7.109-55.48 21.326-15.344 14.217-23.102 31.511-23.102 51.709 0 20.155 7.802 37.492 23.102 51.839 15.431 14.39 33.981 21.542 55.48 21.542 21.542 0 40.007-7.152 55.264-21.542 15.3-14.347 22.972-31.684 22.972-51.839 0-20.242-7.671-37.493-22.972-51.709z" />
<glyph unicode="&#xe916;" glyph-name="trash" d="M174.078 755.201h675.839c11.311 0 20.478-9.169 20.478-20.48v-696.319c0-56.556-45.846-102.402-102.396-102.402h-512.002c-56.554 0-102.401 45.846-102.401 102.402v696.319c0 11.311 9.169 20.48 20.48 20.48zM441.596 484.926l70.402-70.403 70.404 70.403c19.028 19.032 49.889 19.032 68.923 0 19.028-19.033 19.028-49.891 0-68.922l-70.404-70.404 70.404-70.404c19.028-19.028 19.028-49.889 0-68.923-19.034-19.028-49.896-19.028-68.923 0l-70.404 70.404-70.402-70.404c-19.033-19.028-49.891-19.028-68.924 0-19.033 19.034-19.033 49.896 0 68.923l70.402 70.404-70.402 70.404c-19.033 19.031-19.033 49.889 0 68.922s49.891 19.032 68.924 0zM255.998 632.321v-573.442c0-11.311 9.169-20.478 20.479-20.478h471.038c11.311 0 20.484 9.167 20.484 20.478v573.442c0 11.31-9.173 20.479-20.484 20.479h-471.038c-11.31 0-20.479-9.169-20.479-20.479zM255.998 929.28c0 16.966 13.754 30.72 30.72 30.72h450.562c16.963 0 30.72-13.754 30.72-30.72 0-11.31 9.167-20.479 20.478-20.479h81.918c28.28 0 51.204-22.924 51.204-51.2s-22.924-51.199-51.204-51.199h-716.798c-28.277 0-51.199 22.924-51.199 51.199s22.924 51.2 51.199 51.2h81.92c11.31 0 20.479 9.169 20.479 20.479z" />
<glyph unicode="&#xe917;" glyph-name="graphic" d="M716.8 933.053v-835.37c0-14.877 11.461-26.946 25.6-26.946h256c14.139 0 25.6 12.069 25.6 26.946v835.37c0 14.883-11.461 26.947-25.6 26.947h-256c-14.139 0-25.6-12.065-25.6-26.947zM793.6 852.211c0 14.882 11.461 26.947 25.6 26.947h102.4c14.139 0 25.6-12.065 25.6-26.947v-673.684c0-14.885-11.461-26.946-25.6-26.946h-102.4c-14.139 0-25.6 12.061-25.6 26.946v673.684zM0 744.421v-646.739c0-14.877 11.461-26.946 25.6-26.946h256c14.139 0 25.6 12.069 25.6 26.946v646.739c0 14.882-11.461 26.947-25.6 26.947h-256c-14.139 0-25.6-12.065-25.6-26.947zM76.8 663.579c0 14.882 11.461 26.947 25.6 26.947h102.4c14.139 0 25.6-12.065 25.6-26.947v-485.052c0-14.885-11.461-26.946-25.6-26.946h-102.4c-14.139 0-25.6 12.061-25.6 26.946v485.052zM384 555.789h256c14.139 0 25.6-12.064 25.6-26.947v-431.16c0-14.877-11.461-26.946-25.6-26.946h-256c-14.139 0-25.6 12.069-25.6 26.946v431.16c0 14.883 11.461 26.947 25.6 26.947zM460.8 474.947c-14.139 0-25.6-12.065-25.6-26.947v-269.473c0-14.885 11.461-26.946 25.6-26.946h102.4c14.139 0 25.6 12.061 25.6 26.946v269.473c0 14.882-11.461 26.947-25.6 26.947h-102.4zM25.6 16.845c-14.139 0-25.6-12.069-25.6-26.953v-26.946c0-14.885 11.461-26.946 25.6-26.946h972.8c14.139 0 25.6 12.061 25.6 26.946v26.946c0 14.885-11.461 26.953-25.6 26.953h-972.8z" />
<glyph unicode="&#xe918;" glyph-name="plus" d="M1023.927 496.786h-463.214v463.214h-97.499v-463.214h-463.214v-97.499h463.214v-463.214h97.499v463.214h463.214v97.499z" />
<glyph unicode="&#xe919;" glyph-name="download" d="M950.857 598.588h-250.775v361.412h-376.163v-361.412h-250.775l438.857-421.648 438.857 421.648zM73.143 56.474v-120.474h877.714v120.474h-877.714z" />
<glyph unicode="&#xe91a;" glyph-name="linkedin" d="M948.384 960h-872.719c-41.789 0-75.66-32.838-75.66-73.367v-877.234c0-40.533 33.883-73.399 75.66-73.399h872.719c41.779 0 75.61 32.887 75.61 73.399v877.234c0 40.518-33.83 73.367-75.61 73.367zM310.45 102.844h-154.717v462.322h154.717v-462.322zM233.107 628.327h-1.040c-51.884 0-85.516 35.483-85.516 79.905 0 45.318 34.621 79.838 87.533 79.838 52.916 0 85.466-34.511 86.495-79.838 0-44.432-33.566-79.905-87.471-79.905zM868.162 102.844h-154.671v247.356c0 62.157-22.409 104.567-78.34 104.567-42.79 0-68.19-28.612-79.343-56.235-4.134-9.869-5.158-23.667-5.158-37.444v-258.236h-154.638c0 0 2.024 418.961 0 462.321h154.663v-65.546c20.531 31.497 57.22 76.424 139.354 76.424 101.798 0 178.133-66.039 178.133-208.111v-265.097zM549.672 498.159c0.265 0.435 0.636 0.956 1.003 1.463v-1.463h-1.003z" />
<glyph unicode="&#xe91b;" glyph-name="telegram" d="M85.333 960c-47.128 0-85.333-38.205-85.333-85.333v-853.333c0-47.13 38.205-85.333 85.333-85.333h853.333c47.13 0 85.333 38.204 85.333 85.333v853.333c0 47.128-38.204 85.333-85.333 85.333h-853.333zM866.044 733.415l-120.311-578.697c-2.833-13.662-18.854-19.853-30.157-11.639l-164.237 119.236c-9.967 7.241-23.565 6.857-33.109-0.93l-91.055-74.223c-10.569-8.644-26.493-3.827-30.54 9.19l-50.798 163.366c-7.84 25.212-26.91 45.376-51.648 54.609l-124.133 46.327c-16.593 6.217-16.735 29.641-0.189 36.015l670.397 258.622c14.212 5.496 28.877-6.954 25.779-21.877zM705.698 628.766l-319.251-196.625c-12.236-7.548-17.996-22.327-14.048-36.16l34.516-121.284c2.455-8.593 14.924-7.714 16.119 1.165l8.97 66.509c1.694 12.523 7.667 24.064 16.93 32.683l263.471 244.909c4.932 4.569-0.973 12.326-6.707 8.804z" />
<glyph unicode="&#xe91c;" glyph-name="facebook" d="M967.451 960h-910.932c-31.193 0-56.518-25.275-56.518-56.518v-910.932c0-31.241 25.325-56.55 56.518-56.55h490.417v396.553h-133.437v154.564h133.437v113.981c0 132.241 80.747 204.288 198.741 204.288 56.567 0 105.075-4.232 119.223-6.070v-138.226l-81.843-0.034c-64.158 0-76.531-30.502-76.531-75.234v-98.653h153.062l-20.015-154.547h-133.065v-396.57h260.924c31.223 0 56.567 25.34 56.567 56.499v910.965c-0.017 31.21-25.327 56.484-56.55 56.484z" />
<glyph unicode="&#xe91d;" glyph-name="euro" d="M879.283-13.127l-25.463 115.629c-1.444 6.799-5.082 11.891-10.913 15.271-6.305 3.401-12.604 3.872-18.901 1.447l-3.643-1.447-8.737-2.178c-3.885-0.958-8.368-2.058-13.458-3.268-5.092-1.213-11.020-2.415-17.819-3.635-6.763-1.213-13.949-2.31-21.446-3.278-7.512-0.95-15.62-1.814-24.355-2.545-8.737-0.716-17.454-1.083-26.189-1.083-61.58 0-116.979 16.601-166.186 49.813-49.215 33.222-85.458 78.193-108.728 134.91h281.446c5.344 0 10.192 1.814 14.54 5.459 4.379 3.627 7.046 8.108 7.996 13.46l17.454 81.456c1.462 7.252 0 13.807-4.351 19.63-4.848 5.823-10.923 8.737-18.186 8.737h-333.804c-1.455 32.968-1.455 58.421 0 76.364h354.909c13.104 0 20.853 6.297 23.275 18.904l17.454 82.911c1.444 6.786-0.227 13.083-5.092 18.906-4.348 5.818-10.408 8.74-18.168 8.74h-340.376c24.243 54.302 60.604 96.967 109.095 127.999 48.486 31.039 103.275 46.55 164.365 46.55 1.946 0.968 9.091 0.723 21.446-0.729 12.362-1.447 19.406-2.058 21.095-1.814 1.674 0.239 8.004-0.492 18.901-2.178 10.913-1.697 16.372-2.547 16.372-2.547l12.727-2.542c3.645-0.734 6.432-1.33 8.368-1.821l2.912-0.723c6.297-1.949 12.1-1.337 17.454 1.811 5.337 3.161 8.735 7.881 10.192 14.184l31.276 115.637c1.447 6.305 0.713 12.123-2.178 17.454-4.369 5.828-9.224 9.463-14.558 10.913-44.601 11.15-91.651 16.728-141.095 16.728-108.621 0-205.701-31.039-291.281-93.093-85.578-62.058-144.613-144.007-177.099-245.821h-71.267c-6.791 0-12.362-2.178-16.728-6.542-4.353-4.359-6.542-9.937-6.542-16.728v-82.911c0-6.786 2.181-12.365 6.542-16.718 4.369-4.369 9.947-6.542 16.728-6.542h48.731c-1.465-23.28-1.697-48.721-0.734-76.372h-47.997c-6.302 0-11.756-2.3-16.362-6.906-4.603-4.603-6.908-10.059-6.908-16.354v-82.188c0-6.312 2.305-11.751 6.908-16.372 4.608-4.606 10.059-6.888 16.362-6.888h69.094c30.545-107.152 88.248-192.376 173.097-255.644 84.855-63.291 184.008-94.917 297.456-94.917 9.221 0 18.55 0.227 28.008 0.731 9.476 0.487 18.308 1.22 26.554 2.178 8.238 0.96 16.364 2.040 24.365 3.261 7.994 1.22 15.271 2.412 21.81 3.645 6.547 1.202 12.729 2.412 18.542 3.617 5.823 1.228 11.035 2.545 15.648 4.010 4.603 1.437 8.465 2.537 11.629 3.25 3.156 0.731 5.701 1.595 7.627 2.545l3.645 0.734c5.337 1.936 9.458 5.456 12.362 10.556 2.912 5.062 3.625 10.526 2.178 16.341z" />
<glyph unicode="&#xe91e;" glyph-name="dram" d="M784.036 522.533c0 50.746 0 83.389 0 83.562-0.614 97.208-40.518 185.857-104.349 249.555-64.226 64.348-153.793 104.399-251.918 104.349-98.129 0.047-187.702-40.004-251.921-104.352-64.348-64.215-104.399-153.789-104.349-251.925h159.678c0.036 54.549 21.876 103.187 57.578 139.021 35.828 35.702 84.466 57.539 139.014 57.585 54.541-0.047 103.176-21.884 139.011-57.585 35.087-35.216 56.797-82.81 57.564-136.215 0.014-0.936 0.014-670.528 0.014-670.528h159.692c0 0.269 0 81.914 0 188.083l-0.013 398.451zM624.249 522.467h-168.377v-160.998h168.37zM952.503 522.467h-168.378v-160.998h168.365zM952.503 285.030h-168.378v-161.005h168.365zM624.371 285.043h-168.374v-160.998h168.367z" />
<glyph unicode="&#xe91f;" glyph-name="dollar" d="M654.413 494.838c-40.183 22.207-82.904 39.126-125.202 56.68-24.532 10.151-48.008 21.995-68.734 38.491-40.817 32.57-32.992 85.442 14.804 106.38 13.535 5.922 27.705 7.825 42.086 8.671 55.411 2.961 108.071-7.19 158.195-31.3 24.956-12.054 33.204-8.248 41.663 17.765 8.883 27.494 16.285 55.411 24.533 83.116 5.498 18.611-1.269 30.878-18.823 38.703-32.147 14.17-65.139 24.321-99.823 29.82-45.258 6.979-45.258 7.191-45.47 52.661-0.211 64.081-0.211 64.081-64.504 64.081-9.306 0-18.611 0.211-27.917 0-30.031-0.846-35.107-6.133-35.953-36.376-0.423-13.535 0-27.071-0.211-40.817-0.212-40.183-0.423-39.549-38.915-53.507-93.055-33.838-150.58-97.285-156.714-198.8-5.499-89.884 41.452-150.581 115.262-194.783 45.47-27.282 95.805-43.355 144.024-64.716 18.822-8.248 36.799-17.765 52.449-30.877 46.317-38.282 37.857-101.937-17.13-126.045-29.397-12.902-60.486-16.077-92.421-12.058-49.277 6.131-96.44 19.034-140.852 42.086-26.013 13.536-33.627 9.939-42.509-18.189-7.614-24.32-14.381-48.851-21.149-73.389-9.094-32.992-5.71-40.813 25.802-56.256 40.183-19.456 83.115-29.395 126.894-36.371 34.261-5.504 35.318-6.982 35.741-42.515 0.212-16.070 0.212-32.352 0.423-48.429 0.212-20.301 9.94-32.147 30.877-32.57 23.687-0.422 47.585-0.422 71.272 0.211 19.457 0.422 29.397 11.002 29.397 30.669 0 21.99 1.057 44.198 0.211 66.195-1.057 22.419 8.671 33.837 30.243 39.757 49.7 13.536 91.998 40.186 124.568 79.949 90.518 109.971 56.045 270.916-72.118 341.764z" />
<glyph unicode="&#xe920;" glyph-name="check" d="M1009.004 809.008c-19.994 19.996-52.41 19.996-72.408 0l-613.408-613.414-235.784 235.784c-19.994 19.996-52.41 19.994-72.408 0-19.996-19.994-19.996-52.41 0-72.406l271.988-271.984c19.988-19.994 52.428-19.98 72.408 0l649.612 649.612c19.996 19.994 19.994 52.412 0 72.408z" />
<glyph unicode="&#xe921;" glyph-name="ruble" d="M69.827 98.924h162.912v-139.655c0-6.795 2.174-12.357 6.548-16.705 4.362-4.376 9.938-6.564 16.731-6.564h121.448c6.303 0 11.757 2.188 16.364 6.564 4.607 4.348 6.903 9.912 6.903 16.705v139.655h367.272c6.779 0 12.357 2.16 16.729 6.536 4.376 4.372 6.548 9.938 6.548 16.733v93.095c0 6.755-2.172 12.357-6.548 16.705-4.36 4.376-9.95 6.564-16.729 6.564h-367.284v85.822h247.273c96.965 0 176.104 29.546 237.455 88.723 61.326 59.114 92.005 135.476 92.005 229.088 0 93.55-30.678 169.914-92.005 229.088-61.338 59.116-140.492 88.723-237.455 88.723h-391.988c-6.795 0-12.359-2.186-16.731-6.536-4.362-4.374-6.548-9.974-6.548-16.731v-457.466h-162.9c-6.793 0-12.359-2.298-16.731-6.903-4.36-4.607-6.548-10.061-6.548-16.362v-108.352c0-6.795 2.174-12.361 6.548-16.733 4.374-4.376 9.926-6.536 16.731-6.536h162.912v-85.822h-162.912c-6.793 0-12.359-2.188-16.731-6.564-4.36-4.348-6.548-9.938-6.548-16.705v-93.095c0-6.795 2.174-12.361 6.548-16.733 4.372-4.378 9.936-6.538 16.731-6.538zM400.722 805.075h232.727c51.388 0 92.836-15.025 124.361-45.085 31.509-30.062 47.271-69.348 47.271-117.813 0-48.489-15.762-87.787-47.271-117.813-31.525-30.086-72.975-45.111-124.361-45.111h-232.727v325.822z" />
<glyph unicode="&#xe922;" glyph-name="filter" d="M987.428 484.571h-590.335c-19.832 77.923-99.079 125.014-177.004 105.182-51.677-13.153-92.029-53.505-105.182-105.182h-78.334c-20.199 0-36.572-16.374-36.572-36.572s16.374-36.57 36.572-36.57h78.336c19.832-77.923 99.079-125.014 177.004-105.182 51.677 13.153 92.029 53.505 105.182 105.182h590.333c20.199 0 36.572 16.374 36.572 36.572s-16.374 36.57-36.572 36.57zM256.001 374.857c-40.395 0-73.142 32.747-73.142 73.142s32.747 73.142 73.142 73.142 73.142-32.747 73.142-73.142c0-40.395-32.747-73.142-73.142-73.142zM987.428 850.286h-114.906c-19.832 77.923-99.079 125.014-177.004 105.182-51.677-13.153-92.029-53.505-105.182-105.182h-553.763c-20.199 0-36.572-16.374-36.572-36.572s16.374-36.572 36.572-36.572h553.763c19.832-77.923 99.079-125.014 177.004-105.182 51.677 13.153 92.029 53.505 105.182 105.182h114.906c20.199 0 36.572 16.374 36.572 36.572s-16.374 36.572-36.572 36.572zM731.429 740.572c-40.395 0-73.142 32.747-73.142 73.142s32.747 73.142 73.142 73.142 73.142-32.747 73.142-73.142-32.747-73.142-73.142-73.142zM987.428 118.856h-188.051c-19.832 77.923-99.079 125.014-177.004 105.182-51.677-13.153-92.029-53.505-105.182-105.182h-480.619c-20.199 0-36.572-16.374-36.572-36.57s16.374-36.572 36.572-36.572h480.621c19.832-77.923 99.079-125.014 177.004-105.182 51.677 13.153 92.029 53.505 105.182 105.182h188.048c20.199 0 36.572 16.374 36.572 36.572s-16.374 36.57-36.572 36.57zM658.285 9.142c-40.395 0-73.142 32.747-73.142 73.142s32.747 73.142 73.142 73.142c40.395 0 73.142-32.747 73.142-73.142s-32.745-73.142-73.142-73.142z" />
<glyph unicode="&#xe923;" glyph-name="error" d="M0.001-3.764h1023.999l-512 903.529-512-903.529zM572.235 116.706h-120.47v120.47h120.47v-120.47zM572.235 297.411h-120.47v240.941h120.47v-240.941z" />
<glyph unicode="&#xe924;" glyph-name="save" d="M69.755-64h884.49c38.505 0 69.755 31.25 69.755 69.755v672.436c0 27.762-11.021 54.409-30.692 73.94l-207.869 207.869h-0.279v-387.837h-553.853v387.837h-161.552c-38.505 0-69.755-31.25-69.755-69.755v-884.49c0-38.505 31.25-69.755 69.755-69.755zM552.039 960h148.578v-312.362h-148.578v312.362z" />
<glyph unicode="&#xe925;" glyph-name="upload" d="M832.803 674.046c-10.95 65.066-43.167 124.447-92.44 169.509-54.748 50.116-125.921 77.7-200.041 77.7-57.275 0-113.076-16.424-160.875-47.378-39.798-25.689-72.857-60.433-96.23-101.284-10.107 1.895-20.636 2.948-31.164 2.948-89.492 0-162.349-72.857-162.349-162.349 0-11.581 1.263-22.742 3.369-33.691-57.907-42.114-93.072-109.917-93.072-182.143 0-58.328 21.689-114.971 61.276-159.822 40.64-45.904 94.335-73.068 151.61-76.226 0.632 0 1.053 0 1.685 0h181.090c15.793 0 28.427 12.634 28.427 28.427s-12.634 28.427-28.427 28.427h-180.248c-86.123 5.264-158.559 87.176-158.559 179.405 0 59.591 32.007 115.182 83.596 145.293 12.002 6.949 17.056 21.478 12.424 34.533-4.211 11.371-6.317 23.373-6.317 36.218 0 58.117 47.378 105.495 105.495 105.495 12.424 0 24.637-2.106 36.007-6.317 13.898-5.054 29.269 1.263 35.586 14.529 39.377 83.596 124.447 137.502 216.887 137.502 124.236 0 226.783-93.072 238.575-216.466 1.263-12.845 10.95-23.163 23.584-25.268 93.703-16.003 164.455-102.547 164.455-201.305 0-104.653-82.333-195.619-183.827-203.41h-155.19c-15.793 0-28.427-12.634-28.427-28.427s12.634-28.427 28.427-28.427h156.243c0.632 0 1.263 0 2.106 0 64.224 4.633 124.236 34.112 168.877 83.386 44.43 48.852 68.646 111.602 68.646 176.878-0.211 118.13-80.859 223.204-191.197 252.262zM682.667 370.405c11.16 11.16 11.16 29.059 0 40.219l-150.557 150.557c-5.264 5.264-12.634 8.423-20.004 8.423s-14.74-2.948-20.004-8.423l-150.557-150.557c-11.16-11.16-11.16-29.059 0-40.219 5.475-5.475 12.845-8.423 20.004-8.423s14.529 2.737 20.004 8.423l102.126 102.126v-469.36c0-15.793 12.634-28.427 28.427-28.427s28.427 12.634 28.427 28.427v469.36l102.126-102.126c10.95-11.16 28.848-11.16 40.008 0z" />
<glyph unicode="&#xe926;" glyph-name="edit" d="M889.305 642.425l-440.116-440.116c-14.842-14.842-35.032-23.090-56.024-22.884l-183.544 1.806c-42.093 0.413-76.292 34.096-77.348 76.178l-4.477 178.533c-0.537 21.397 7.727 42.079 22.863 57.213l443.958 443.958c30.516 30.516 79.992 30.516 110.509 0l184.181-184.181c30.516-30.516 30.516-79.992 0-110.509zM163.903 40.189h677.223c28.771 0 52.094-23.323 52.094-52.094v0c0-28.771-23.323-52.094-52.094-52.094h-677.223c-28.771 0-52.094 23.323-52.094 52.094v0c0 28.771 23.323 52.094 52.094 52.094z" />
<glyph unicode="&#xe927;" glyph-name="call" d="M878.915 743.223c-7.772 11.007-15.964 21.741-24.577 32.075-93.37 112.023-233.603 183.736-390.325 184.639-0.567 0-1.155 0.063-1.743 0.063-0.147 0-0.294 0-0.441 0-0.252 0-0.483 0-0.756 0-7.415 0-14.725-0.315-22.056-0.609v-980.624c-43.776 0.882-100.197 4.873-127.483 17.099-16.258 8.087-28 14.536-36.634 19.829l25.123 24.345 3.088 179.787-0.042 0.084c0 0-9.978 25.144-24.492 25.396l-0.063 0.126-63.395-3.907c0 0-30.731 67.428-34.554 144.56-3.823 77.111 39.616 182.034 39.616 182.034l63.206-9.894 25.249 24.387 3.109 179.787-0.063 0.147c0 0-10.020 25.102-24.577 25.375l-0.021 0.084-63.416-6.533c-41.318-3.403-170.922-75.137-172.624-386.691-1.617-300.022 121.874-364.762 160.44-371.483 6.848-22.308 27.454-38.314 82.069-65.411 35.856-16.090 100.554-20.291 145.421-21.153v-0.147c7.331-0.294 14.662-0.588 22.056-0.588 0.273 0 0.504 0.042 0.756 0.042 0.168 0 0.315-0.042 0.441-0.042 0.588 0 1.176 0.084 1.764 0.084 156.701 0.903 296.914 72.616 390.325 184.618 8.612 10.335 16.783 21.090 24.577 32.054 59.152 83.518 94.084 185.311 94.084 295.254 0.063 109.901-34.869 211.715-94.063 295.212zM930.924 452.338h-167.141c-0.399 75.158-10.44 146.346-28 210.497 40.709 15.313 77.469 33.882 109.313 55.161 53.102-75.347 84.925-166.826 85.829-265.657zM820.435 750.112c-28.021-18.359-60.538-34.575-96.647-48.082-26.95 79.653-66.041 146.010-113.115 191.382 82.552-27.811 154.832-78.057 209.762-143.3zM482.078 916.497c86.144-11.805 160.461-100.323 202.662-227.595-60.79-18.212-129.604-29.261-202.662-31.025v258.62zM482.078 615.866c77.027 1.848 149.665 13.78 214.341 33.588 15.796-59.929 24.976-126.537 25.354-197.116h-239.694v163.528zM482.078 410.327h238.854c-2.563-58.206-11.049-113.43-24.303-163.822-64.718 19.85-137.439 31.802-214.53 33.651v130.171zM482.078-20.455v258.62c73.12-1.785 141.977-12.813 202.767-31.067-42.2-127.273-116.623-215.727-202.767-227.553zM610.716 2.609c47.073 45.414 86.207 111.708 113.157 191.382 36.025-13.507 68.457-29.681 96.458-47.998-54.951-65.222-127.105-115.573-209.614-143.384zM845.096 177.984c-31.823 21.279-68.625 39.848-109.292 55.182 14.914 54.572 24.45 114.228 27.16 177.161h166.427c-6.89-86.081-37.201-165.503-84.295-232.342z" />
</font>
</defs>
</svg>
